<?xml version="1.0" encoding="UTF-8" standalone="no"?>
<!-- Created with Inkscape (http://www.inkscape.org/) -->

<svg
   xmlns:dc="http://purl.org/dc/elements/1.1/"
   xmlns:cc="http://creativecommons.org/ns#"
   xmlns:rdf="http://www.w3.org/1999/02/22-rdf-syntax-ns#"
   xmlns:svg="http://www.w3.org/2000/svg"
   xmlns="http://www.w3.org/2000/svg"
   xmlns:sodipodi="http://sodipodi.sourceforge.net/DTD/sodipodi-0.dtd"
   xmlns:inkscape="http://www.inkscape.org/namespaces/inkscape"
   width="540"
   height="338"
   viewBox="0 0 540.00001 338.00001"
   id="svg2"
   version="1.1"
   inkscape:version="0.91 r13725"
   inkscape:export-filename="D:\Pablo\OBEY\8.png"
   inkscape:export-xdpi="90"
   inkscape:export-ydpi="90"
   sodipodi:docname="logo.svg">
  <defs
     id="defs4">
    <clipPath
       clipPathUnits="userSpaceOnUse"
       id="clipPath7377">
      <path
         transform="matrix(1.7744772,0,0,1.0025513,-94.907942,6.1677602)"
         d="M 13.338181,864.79406 122.54454,755.58772 231.75089,864.79407 122.54453,974.00042 Z"
         inkscape:randomized="0"
         inkscape:rounded="0"
         inkscape:flatsided="true"
         sodipodi:arg2="3.9269908"
         sodipodi:arg1="3.1415927"
         sodipodi:r2="77.220551"
         sodipodi:r1="109.20635"
         sodipodi:cy="864.79407"
         sodipodi:cx="122.54453"
         sodipodi:sides="4"
         id="path7379"
         style="opacity:1;fill:#ffb380;fill-opacity:1;fill-rule:nonzero;stroke:#ff7f2a;stroke-width:2.24922419;stroke-linecap:butt;stroke-linejoin:bevel;stroke-miterlimit:4;stroke-dasharray:none;stroke-dashoffset:0;stroke-opacity:1"
         sodipodi:type="star" />
    </clipPath>
    <clipPath
       clipPathUnits="userSpaceOnUse"
       id="clipPath7768">
      <path
         sodipodi:type="star"
         style="opacity:1;fill:#ffffff;fill-opacity:1;fill-rule:nonzero;stroke:#000000;stroke-width:6.83160877;stroke-linecap:butt;stroke-linejoin:bevel;stroke-miterlimit:4;stroke-dasharray:none;stroke-dashoffset:0;stroke-opacity:1"
         id="path7770"
         sodipodi:sides="4"
         sodipodi:cx="350"
         sodipodi:cy="327.36221"
         sodipodi:r1="75.000008"
         sodipodi:r2="64.951912"
         sodipodi:arg1="1.5707963"
         sodipodi:arg2="2.3561945"
         inkscape:flatsided="true"
         inkscape:rounded="0"
         inkscape:randomized="0"
         d="m 350,402.36222 -75.00001,-75 L 350,252.36221 l 75.00001,75 z"
         transform="matrix(1.7355576,0,0,1,-257.44516,0)" />
    </clipPath>
  </defs>
  <sodipodi:namedview
     id="base"
     pagecolor="#ffffff"
     bordercolor="#666666"
     borderopacity="1.0"
     inkscape:pageopacity="0.0"
     inkscape:pageshadow="2"
     inkscape:zoom="0.7997093"
     inkscape:cx="293.72128"
     inkscape:cy="201.90892"
     inkscape:document-units="px"
     inkscape:current-layer="flowRoot7802"
     showgrid="false"
     inkscape:window-width="1024"
     inkscape:window-height="548"
     inkscape:window-x="-8"
     inkscape:window-y="-8"
     inkscape:window-maximized="1"
     showguides="true"
     inkscape:guide-bbox="true"
     units="px" />
  <metadata
     id="metadata7">
    <rdf:RDF>
      <cc:Work
         rdf:about="">
        <dc:format>image/svg+xml</dc:format>
        <dc:type
           rdf:resource="http://purl.org/dc/dcmitype/StillImage" />
        <dc:title />
      </cc:Work>
    </rdf:RDF>
  </metadata>
  <g
     inkscape:groupmode="layer"
     id="layer13"
     inkscape:label="CUBE!"
     transform="translate(0,-714.36216)">
    <path
       style="fill:#c40052;fill-opacity:1;fill-rule:evenodd;stroke:#000000;stroke-width:3.00000024;stroke-linecap:butt;stroke-linejoin:bevel;stroke-miterlimit:4;stroke-dasharray:none;stroke-opacity:1"
       d="m 431.41281,1040.8238 97.62303,0 -50.26001,-42.17357 42.96964,-51.20974 -90.33266,0 z"
       id="path7780-5"
       inkscape:connector-curvature="0"
       sodipodi:nodetypes="cccccc" />
    <path
       style="fill:#77002a;fill-opacity:1;fill-rule:evenodd;stroke:#000000;stroke-width:3.00000024;stroke-linecap:butt;stroke-linejoin:bevel;stroke-miterlimit:4;stroke-dasharray:none;stroke-opacity:1"
       d="m 461.58715,999.81493 -30.24387,0 0,41.66467 z"
       id="path7782-8"
       inkscape:connector-curvature="0"
       sodipodi:nodetypes="cccc" />
    <path
       style="fill:#c40052;fill-opacity:1;fill-rule:evenodd;stroke:#000000;stroke-width:3.00000024;stroke-linecap:butt;stroke-linejoin:bevel;stroke-miterlimit:4;stroke-dasharray:none;stroke-opacity:1"
       d="m 108.5872,1040.8252 -97.623019,0 50.260001,-42.17357 -42.969638,-51.20974 90.332656,0 z"
       id="path7780"
       inkscape:connector-curvature="0"
       sodipodi:nodetypes="cccccc" />
    <path
       sodipodi:type="star"
       style="opacity:1;fill:#9386d5;fill-opacity:1;fill-rule:nonzero;stroke:#000000;stroke-width:8.99188042;stroke-linecap:butt;stroke-linejoin:bevel;stroke-miterlimit:4;stroke-dasharray:none;stroke-dashoffset:0;stroke-opacity:1"
       id="path7731"
       sodipodi:sides="6"
       sodipodi:cx="269.05579"
       sodipodi:cy="878.50299"
       sodipodi:r1="150.00002"
       sodipodi:r2="129.90382"
       sodipodi:arg1="-1.5707963"
       sodipodi:arg2="-1.0471976"
       inkscape:flatsided="true"
       inkscape:rounded="0"
       inkscape:randomized="0"
       d="m 269.05579,728.50298 129.90382,75.00001 0,150.00001 -129.90383,75 -129.90382,-75.00001 0,-150.00001 z"
       transform="matrix(1.0008979,0,0,1.0009082,-0.00984429,-0.94585582)" />
    <g
       id="g7755"
       clip-path="url(#clipPath7768)"
       style="fill:#00dfa4;fill-opacity:1"
       transform="matrix(1.0008979,0,0,1.0009082,-81.026737,475.62737)">
      <path
         transform="matrix(0.66066771,0,0,0.66200243,118.7663,103.99745)"
         d="m 350,252.3622 129.90383,75.00001 -1e-5,150.00001 L 350,552.36223 220.09617,477.36222 l 1e-5,-150.00002 z"
         inkscape:randomized="0"
         inkscape:rounded="0"
         inkscape:flatsided="true"
         sodipodi:arg2="-1.0471976"
         sodipodi:arg1="-1.5707963"
         sodipodi:r2="129.90382"
         sodipodi:r1="150.00002"
         sodipodi:cy="402.36221"
         sodipodi:cx="350"
         sodipodi:sides="6"
         id="path7731-3"
         style="opacity:1;fill:#00dfa4;fill-opacity:1;fill-rule:nonzero;stroke:#000000;stroke-width:13.59656429;stroke-linecap:butt;stroke-linejoin:bevel;stroke-miterlimit:4;stroke-dasharray:none;stroke-dashoffset:0;stroke-opacity:1"
         sodipodi:type="star" />
      <path
         transform="matrix(1.1466269,0,0,0.66200243,-51.319402,103.99746)"
         d="m 350,402.36222 -75.00001,-75 L 350,252.36221 l 75.00001,75 z"
         inkscape:randomized="0"
         inkscape:rounded="0"
         inkscape:flatsided="true"
         sodipodi:arg2="2.3561945"
         sodipodi:arg1="1.5707963"
         sodipodi:r2="64.951912"
         sodipodi:r1="75.000008"
         sodipodi:cy="327.36221"
         sodipodi:cx="350"
         sodipodi:sides="4"
         id="path7735-2"
         style="opacity:1;fill:#00dfa4;fill-opacity:1;fill-rule:nonzero;stroke:#000000;stroke-width:10.32071114;stroke-linecap:butt;stroke-linejoin:bevel;stroke-miterlimit:4;stroke-dasharray:none;stroke-dashoffset:0;stroke-opacity:1"
         sodipodi:type="star" />
    </g>
    <path
       sodipodi:type="star"
       style="opacity:1;fill:none;fill-opacity:1;fill-rule:nonzero;stroke:#000000;stroke-width:6.82544518;stroke-linecap:butt;stroke-linejoin:bevel;stroke-miterlimit:4;stroke-dasharray:none;stroke-dashoffset:0;stroke-opacity:1"
       id="path7735"
       sodipodi:sides="4"
       sodipodi:cx="350"
       sodipodi:cy="327.36221"
       sodipodi:r1="75.000008"
       sodipodi:r2="64.951912"
       sodipodi:arg1="1.5707963"
       sodipodi:arg2="2.3561945"
       inkscape:flatsided="true"
       inkscape:rounded="0"
       inkscape:randomized="0"
       d="m 350,402.36222 -75.00001,-75 L 350,252.36221 l 75.00001,75 z"
       transform="matrix(1.7371159,0,0,1.0009082,-338.70305,475.62737)" />
    <rect
       style="opacity:1;fill:#db0068;fill-opacity:1;fill-rule:nonzero;stroke:#000000;stroke-width:3.00000024;stroke-linecap:butt;stroke-linejoin:bevel;stroke-miterlimit:4;stroke-dasharray:none;stroke-dashoffset:0;stroke-opacity:1"
       id="rect7778"
       width="382.9826"
       height="103.25617"
       x="78.549355"
       y="896.62897" />
    <path
       style="fill:#77002a;fill-opacity:1;fill-rule:evenodd;stroke:#000000;stroke-width:3.00000024;stroke-linecap:butt;stroke-linejoin:bevel;stroke-miterlimit:4;stroke-dasharray:none;stroke-opacity:1"
       d="m 78.412862,999.81633 30.243868,0 0,41.66467 z"
       id="path7782"
       inkscape:connector-curvature="0"
       sodipodi:nodetypes="cccc" />
    <g
       transform="matrix(1.0008979,0,0,1.0009082,-69.762542,443.08603)"
       style="font-style:normal;font-variant:normal;font-weight:normal;font-stretch:normal;font-size:12px;line-height:125%;font-family:Arial;-inkscape-font-specification:Arial;letter-spacing:0px;word-spacing:0px;fill:#000500;fill-opacity:0.50196078;stroke:#001300;stroke-width:4.99548912;stroke-linecap:round;stroke-linejoin:round;stroke-miterlimit:4;stroke-dasharray:none;stroke-opacity:0.50196078"
       id="flowRoot7802">
      <path
         d="m 208.52422,503.62385 q 0,-6.5 2.3,-12.8 2.3,-6.3 6.7,-11.3 4.5,-5 10.8,-8.1 6.4,-3.1 14.5,-3.1 9.5,0 16.6,4.3 7.1,4.2 10.5,11.2 l -14.9,10.6 q -0.9,-2.6 -2.4,-4.3 -1.4,-1.7 -3.1,-2.7 -1.7,-1 -3.6,-1.4 -1.9,-0.4 -3.5,-0.4 -3.7,0 -6.4,1.7 -2.6,1.6 -4.4,4.3 -1.7,2.6 -2.5,6 -0.8,3.3 -0.8,6.6 0,3.7 0.9,7.1 1,3.4 2.8,6 1.9,2.6 4.5,4.2 2.7,1.5 6.1,1.5 1.7,0 3.5,-0.4 1.8,-0.5 3.4,-1.5 1.7,-1.1 3,-2.7 1.4,-1.7 2.2,-4.1 l 15.9,9.5 q -1.5,3.9 -4.6,7 -3,3.1 -6.9,5.2 -3.9,2.1 -8.3,3.2 -4.4,1.1 -8.6,1.1 -7.4,0 -13.6,-3.1 -6.2,-3.2 -10.7,-8.4 -4.4,-5.2 -6.9,-11.8 -2.5,-6.6 -2.5,-13.4 z"
         style="font-style:normal;font-variant:normal;font-weight:900;font-stretch:normal;font-size:100px;font-family:Raleway;-inkscape-font-specification:'Raleway Heavy';fill:#000500;fill-opacity:0.50196078;stroke:#001300;stroke-width:4.99548912;stroke-linecap:round;stroke-linejoin:round;stroke-miterlimit:4;stroke-dasharray:none;stroke-opacity:0.50196078"
         id="path4161" />
      <path
         d="m 308.75391,523.02385 q 3.4,0 5.8,-1.5 2.4,-1.5 3.9,-3.9 1.5,-2.5 2.2,-5.7 0.7,-3.2 0.7,-6.7 l 0,-36.5 19.5,0 0,36.5 q 0,7.4 -1.9,13.9 -1.9,6.4 -5.9,11.1 -4,4.7 -10.1,7.4 -6,2.7 -14.2,2.7 -8.5,0 -14.6,-2.8 -6,-2.9 -9.9,-7.7 -3.9,-4.8 -5.7,-11.1 -1.8,-6.4 -1.8,-13.5 l 0,-36.5 19.5,0 0,36.5 q 0,3.5 0.7,6.8 0.7,3.2 2.2,5.7 1.5,2.4 3.8,3.9 2.4,1.4 5.8,1.4 z"
         style="font-style:normal;font-variant:normal;font-weight:900;font-stretch:normal;font-size:100px;font-family:Raleway;-inkscape-font-specification:'Raleway Heavy';fill:#000500;fill-opacity:0.50196078;stroke:#001300;stroke-width:4.99548912;stroke-linecap:round;stroke-linejoin:round;stroke-miterlimit:4;stroke-dasharray:none;stroke-opacity:0.50196078"
         id="path4163" />
      <path
         d="m 412.27734,521.52385 q 0,4.8 -2,8.3 -2,3.4 -5.5,5.6 -3.5,2.2 -8.2,3.3 -4.6,1 -9.8,1 l -34.9,0 0,-71 41.2,0 q 3.7,0 6.7,1.6 3,1.6 5.1,4.2 2.1,2.5 3.2,5.8 1.2,3.2 1.2,6.6 0,5 -2.6,9.6 -2.5,4.5 -7.6,6.8 6.1,1.8 9.6,6.3 3.6,4.4 3.6,11.9 z m -19.8,-4 q 0,-2.6 -1.4,-4.3 -1.4,-1.8 -3.6,-1.8 l -16.1,0 0,11.9 15.4,0 q 2.4,0 4,-1.5 1.7,-1.5 1.7,-4.3 z m -21.1,-32.2 0,10.9 13.3,0 q 2,0 3.6,-1.1 1.7,-1.1 1.7,-4.4 0,-2.9 -1.4,-4.1 -1.4,-1.3 -3.3,-1.3 l -13.9,0 z"
         style="font-style:normal;font-variant:normal;font-weight:900;font-stretch:normal;font-size:100px;font-family:Raleway;-inkscape-font-specification:'Raleway Heavy';fill:#000500;fill-opacity:0.50196078;stroke:#001300;stroke-width:4.99548912;stroke-linecap:round;stroke-linejoin:round;stroke-miterlimit:4;stroke-dasharray:none;stroke-opacity:0.50196078"
         id="path4165" />
      <path
         d="m 471.42266,522.72385 0,17 -50.6,0 0,-71 49.7,0 0,17 -30.2,0 0,10 25.8,0 0,15.8 -25.8,0 0,11.2 31.1,0 z"
         style="font-style:normal;font-variant:normal;font-weight:900;font-stretch:normal;font-size:100px;font-family:Raleway;-inkscape-font-specification:'Raleway Heavy';fill:#000500;fill-opacity:0.50196078;stroke:#001300;stroke-width:4.99548912;stroke-linecap:round;stroke-linejoin:round;stroke-miterlimit:4;stroke-dasharray:none;stroke-opacity:0.50196078"
         id="path4167" />
    </g>
    <rect
       style="opacity:1;fill:none;fill-opacity:0.50196078;fill-rule:nonzero;stroke:none;stroke-width:5;stroke-linecap:round;stroke-linejoin:round;stroke-miterlimit:4;stroke-dasharray:none;stroke-dashoffset:0;stroke-opacity:0.50196078"
       id="rect7810"
       width="540"
       height="338"
       x="0"
       y="714.36218" />
  </g>
</svg>
